<svg xmlns="http://www.w3.org/2000/svg" width="21.368" height="20.033" viewBox="0 0 21.368 20.033"><defs><style>.a{fill:#fafafa;}</style></defs><g transform="translate(0 -16)"><g transform="translate(0 16)"><g transform="translate(0 5.008)"><path class="a" d="M0,136v12.521H17.571V136Zm8.806,10.016H2.546v-.626a3.134,3.134,0,0,1,3.13-3.13,1.878,1.878,0,1,1,1.878-1.878,1.88,1.88,0,0,1-1.878,1.878,3.134,3.134,0,0,1,3.13,3.13Zm6.26,0H10.058v-1.252h5.008Zm0-2.5H10.058V142.26h5.008Z" transform="translate(0 -136)"/><path class="a" d="M95.334,316a1.882,1.882,0,0,0-1.771,1.252h3.542A1.882,1.882,0,0,0,95.334,316Z" transform="translate(-89.658 -308.488)"/><circle class="a" cx="0.5" cy="0.5" r="0.5" transform="translate(5 3.992)"/></g><path class="a" d="M333.916,166v12.521h-5.1l.626,1.252h7.019V166Z" transform="translate(-315.094 -159.74)"/><path class="a" d="M271,16v3.756h7.512v1.252h2.546V16Zm5.634,2.5h-1.252V17.252h1.252Z" transform="translate(-259.69 -16)"/></g><path class="a" d="M112.354,466l-.626,1.252h8.286L119.388,466Z" transform="translate(-107.065 -431.219)"/></g></svg>