<svg xmlns="http://www.w3.org/2000/svg" width="258.46" height="258.46" viewBox="0 0 258.46 258.46"><defs><style>.a{fill:#a09f9f;}.b{fill:#bfbfbf;}.c{fill:#fff;}.d{fill:#35b34a;}.e{fill:#9fd18f;}.f{fill:#62be6b;}.g{fill:#328e63;}.h{fill:#209e48;}.i{fill:#1b4754;}.j{fill:#266d62;}.k{fill:#e2e2e2;}.l{fill:#bae4ea;}.m{fill:#1d8b9e;}</style></defs><circle class="a" cx="129.23" cy="129.23" r="129.23" transform="translate(0 0)"/><circle class="b" cx="124.342" cy="124.342" r="124.342" transform="translate(4.888 5.009)"/><circle class="c" cx="109.706" cy="109.706" r="109.706" transform="translate(19.524 19.524)"/><path class="d" d="M252.6,225.529c-1.746-4.545-3.626-9.01-5.183-13.589a66.643,66.643,0,0,0-25.184,19.611c4.505,3.357,9.01,6.714,13.428,10.172l1.558,1.182a47.931,47.931,0,0,1,16.711-13.273A42.975,42.975,0,0,0,252.6,225.529Z" transform="translate(-144.979 -146.815)"/><path class="e" d="M215.784,313.257c-4.438.047-8.862.248-13.294.248a66.092,66.092,0,0,0,12.286,31.7l15.106-11.024a47.413,47.413,0,0,1-8.554-20.86C219.483,313.271,217.637,313.237,215.784,313.257Z" transform="translate(-138.493 -180.106)"/><path class="f" d="M211.138,252.2a66.233,66.233,0,0,0-9.238,32.569c6.244,0,12.488-.43,18.725-.208a47.615,47.615,0,0,1,5.767-21.357C221.438,259.364,216.147,255.8,211.138,252.2Z" transform="translate(-138.299 -160.044)"/><path class="g" d="M354.517,231.878c1.551-1.074,3.088-2.175,4.619-3.29A66.61,66.61,0,0,0,331.515,209.4c-2.014,5.949-4.19,11.864-5.915,17.886A47.857,47.857,0,0,1,343.412,239.2C347,236.511,351.12,234.221,354.517,231.878Z" transform="translate(-178.947 -145.98)"/><path class="h" d="M305.557,204.961A66.79,66.79,0,0,0,271.84,206.1c1.343,4.163,3.028,8.225,4.653,12.327a55.732,55.732,0,0,1,1.746,5.371,47.971,47.971,0,0,1,21.485-.866C301.489,216.919,303.59,210.97,305.557,204.961Z" transform="translate(-161.281 -143.985)"/><path class="i" d="M386.022,306.579c-6.043-.188-12.213.067-18.3.49A47.669,47.669,0,0,1,360.24,329.9l15.8,10.178a66.5,66.5,0,0,0,10.527-33.462Z" transform="translate(-190.33 -177.893)"/><path class="j" d="M383.793,278.767c.846,0,1.685,0,2.524.06A66.4,66.4,0,0,0,375.75,248.42c-.671.483-1.343.96-2.048,1.423-3.357,2.256-6.593,4.639-9.93,6.909-1.021.671-2.343,1.4-3.612,2.182a47.743,47.743,0,0,1,7.311,20.384C372.9,278.942,378.375,278.713,383.793,278.767Z" transform="translate(-190.304 -158.802)"/><path class="k" d="M297.551,170.248a3.639,3.639,0,0,0,3.639-3.639V145.722a3.639,3.639,0,1,0-7.271,0V166.61a3.639,3.639,0,0,0,3.632,3.639Z" transform="translate(-168.535 -123.808)"/><path class="k" d="M259.988,150.269a3.639,3.639,0,1,0-7.03,1.88l2.915,10.923a3.646,3.646,0,0,0,3.511,2.686,3.719,3.719,0,0,0,.939-.121,3.646,3.646,0,0,0,2.579-4.458Z" transform="translate(-155.036 -125.662)"/><path class="k" d="M187.9,189.748a3.639,3.639,0,1,0-5.15,5.143l7.983,8a3.639,3.639,0,1,0,5.15-5.143Z" transform="translate(-131.656 -139.171)"/><path class="k" d="M143.3,267.038l10.91,2.934a3.531,3.531,0,0,0,.947.128,3.639,3.639,0,0,0,.94-7.157l-10.91-2.934a3.639,3.639,0,0,0-1.887,7.03Z" transform="translate(-118.156 -162.569)"/><path class="k" d="M446.838,341.066l-9.816-2.3a3.639,3.639,0,1,0-1.658,7.083l9.816,2.3a3.516,3.516,0,0,0,.833.094,3.639,3.639,0,0,0,.826-7.184Z" transform="translate(-214.059 -188.452)"/><path class="k" d="M158.592,340.461a3.632,3.632,0,0,0-4.451-2.571l-10.91,2.914a3.639,3.639,0,0,0,.92,7.191,3.8,3.8,0,0,0,.94-.121l10.917-2.921a3.639,3.639,0,0,0,2.585-4.492Z" transform="translate(-118.08 -188.162)"/><path class="k" d="M433,267.5a3.639,3.639,0,0,0,3.485,2.592,3.853,3.853,0,0,0,1.054-.154l9.648-2.921a3.64,3.64,0,0,0-2.108-6.969l-9.648,2.921A3.639,3.639,0,0,0,433,267.5Z" transform="translate(-214.19 -162.57)"/><path class="k" d="M409.056,194.81a3.639,3.639,0,1,0-5.3-4.982l-6.895,7.386a3.639,3.639,0,1,0,5.3,4.982Z" transform="translate(-202.038 -139.171)"/><path class="k" d="M338.336,147.672a3.632,3.632,0,0,0-4.371,2.686l-2.3,9.822a3.639,3.639,0,0,0,2.686,4.371,3.573,3.573,0,0,0,.833.1,3.646,3.646,0,0,0,3.538-2.813l2.3-9.823A3.639,3.639,0,0,0,338.336,147.672Z" transform="translate(-180.907 -125.663)"/><path class="k" d="M221.369,165.313a3.639,3.639,0,0,0-6.3,3.639l10.44,18.087a3.625,3.625,0,0,0,3.149,1.819,3.558,3.558,0,0,0,1.813-.49,3.639,3.639,0,0,0,1.343-4.968Z" transform="translate(-142.487 -130.931)"/><path class="k" d="M180.046,232.541,161.972,222.1a3.639,3.639,0,0,0-3.639,6.3l18.074,10.447a3.64,3.64,0,0,0,3.639-6.3Z" transform="translate(-123.421 -150.014)"/><path class="k" d="M428.01,375.819l-18.074-10.447a3.639,3.639,0,0,0-3.632,6.3l18.074,10.44a3.558,3.558,0,0,0,1.813.49,3.639,3.639,0,0,0,1.819-6.788Z" transform="translate(-204.892 -197.087)"/><path class="k" d="M159.706,308.278a3.639,3.639,0,0,0,0-7.278H138.839a3.639,3.639,0,1,0,0,7.278Z" transform="translate(-116.381 -176.08)"/><path class="k" d="M446.066,301H425.219a3.639,3.639,0,1,0,0,7.278h20.867a3.639,3.639,0,0,0,0-7.278Z" transform="translate(-210.487 -176.08)"/><path class="k" d="M176.355,365.358,158.282,375.8a3.639,3.639,0,0,0,1.819,6.788,3.579,3.579,0,0,0,1.819-.49l18.074-10.427a3.64,3.64,0,1,0-3.639-6.3Z" transform="translate(-123.369 -197.073)"/><path class="k" d="M404.942,237.484a3.619,3.619,0,0,0,4.962,1.343l18.074-10.447a3.635,3.635,0,1,0-3.632-6.3l-18.074,10.44A3.632,3.632,0,0,0,404.942,237.484Z" transform="translate(-204.859 -149.987)"/><path class="k" d="M373.624,163.932a3.632,3.632,0,0,0-4.968,1.343l-10.433,18.087a3.632,3.632,0,0,0,1.343,4.968,3.572,3.572,0,0,0,1.813.49A3.625,3.625,0,0,0,364.533,187l10.433-18.087a3.632,3.632,0,0,0-1.343-4.982Z" transform="translate(-189.507 -130.879)"/><path class="k" d="M242.152,366.35c-63.615,0-115.372-51.8-115.372-115.48s51.758-115.48,115.372-115.48,115.372,51.8,115.372,115.48S305.774,366.35,242.152,366.35Zm0-223.876A108.42,108.42,0,1,0,350.5,250.89,108.483,108.483,0,0,0,242.152,142.473Z" transform="translate(-113.614 -121.66)"/><rect class="e" width="45.433" height="11.964" transform="translate(107.45 185.453)"/><rect class="e" width="45.433" height="3.35" transform="translate(107.45 201.244)"/><rect class="e" width="15.301" height="11.964" transform="translate(86.885 185.453)"/><path class="e" d="M222.666,395.788h-.2a2.994,2.994,0,1,0,0,5.982h.235a2.994,2.994,0,0,0,0-5.982Z" transform="translate(-144.026 -207.227)"/><rect class="e" width="4.921" height="4.76" transform="translate(180.095 185.493)"/><rect class="e" width="4.921" height="4.76" transform="translate(180.095 192.637)"/><rect class="e" width="15.301" height="11.964" transform="translate(158.409 185.453)"/><circle class="l" cx="38.827" cy="38.827" r="38.827" transform="translate(91.39 86.093)"/><path class="m" d="M339.282,254.569l-31.468,26.856a11.733,11.733,0,0,1,.168,1.887A11.951,11.951,0,1,1,303,273.644l34.738-21.23a1.343,1.343,0,0,1,1.558,2.155Z" transform="translate(-165.303 -160.064)"/><circle class="c" cx="7.117" cy="7.117" r="7.117" transform="translate(123.1 115.581)"/></svg>