<svg xmlns="http://www.w3.org/2000/svg" width="89.568" height="200.737" viewBox="0 0 89.568 200.737"><defs><style>.a{fill:#0c4855;}.b{fill:#00976e;}.c{fill:#012d34;}.d{fill:#36b98b;}.e{fill:#fff;}</style></defs><g transform="translate(-169.52 -158)"><path class="a" d="M259.088,611.983c0,16.646-20.05,23.03-44.782,23.03s-44.786-6.384-44.786-23.03,20.047-37.253,44.786-37.253S259.088,595.337,259.088,611.983Z" transform="translate(0 -276.276)"/><path class="b" d="M213.467,580.689s-8.321,4.024-7.041,11.705c1.041,6.259,18.776,12.164,32.517,11.1,16.292-1.264,32.13-4.907,32.13-14.081C271.074,580.022,257.845,575.782,213.467,580.689Z" transform="translate(-24.379 -278.861)"/><path class="a" d="M224.41,578.248s4.776,7.469,26.289,7.469,26.417-7.469,26.417-7.469V566.3H224.41Z" transform="translate(-36.39 -270.687)"/><path class="c" d="M224.41,555.305v5.76a88.076,88.076,0,0,0,26.913,3.94,76.22,76.22,0,0,0,25.79-4.381v-6.4Z" transform="translate(-36.39 -262.679)"/><path class="b" d="M305.044,407.745c12.133-2.14,20.162-12.228,18.389-22.17a61.563,61.563,0,0,1-.853-10.414v-.873a2.993,2.993,0,0,0-2.7-2.959l-5.089-.5,6.377-4.658a1.951,1.951,0,0,0-.5-3.414l-9.043-3.192,5.666-3.138a3.289,3.289,0,0,0,1.507-3.97l-2.663-7.556a36.852,36.852,0,0,0-6.158-19.8L308.8,323.34l-31.112,9.076,8.163,75.652Z" transform="translate(-71.713 -109.614)"/><path class="b" d="M208.782,407.745c-12.133-2.14-20.162-12.228-18.392-22.17a61.223,61.223,0,0,0,.856-10.414v-.873a3,3,0,0,1,2.7-2.959l5.093-.5-6.377-4.658a1.951,1.951,0,0,1,.5-3.414l9.07-3.192-5.666-3.138a3.29,3.29,0,0,1-1.51-3.97l2.663-7.556a36.825,36.825,0,0,1,6.161-19.8l1.17-1.759,31.112,9.076-8.18,75.652Z" transform="translate(-13.674 -109.614)"/><path class="d" d="M262.933,403.1a2.686,2.686,0,0,0-5.248-.829c-4.088,12.969-8.406,31.419-3.087,39.326,4.719,7.037,11.122,7.995,15.891,7.415,7.078-.839,6.245-11.53-.88-11.122a10.557,10.557,0,0,0-1.193.138c-8.9,1.544-8.089-6.383-6.448-17.8A136.042,136.042,0,0,0,262.933,403.1Z" transform="translate(-54.765 -160.692)"/><path class="a" d="M273.293,306.12c0,14.338-14.183,25.952-31.682,25.952S209.93,320.448,209.93,306.12" transform="translate(-26.79 -98.198)"/><circle class="b" cx="11.611" cy="11.611" r="11.611" transform="translate(183.396 158)"/><circle class="b" cx="11.611" cy="11.611" r="11.611" transform="translate(224.42 158)"/><circle class="c" cx="6.879" cy="6.879" r="6.879" transform="translate(186.918 161.893)"/><circle class="c" cx="6.879" cy="6.879" r="6.879" transform="translate(229.152 162.732)"/><path class="b" d="M268.2,209.22c0,18.082-16.646,32.737-37.185,32.737S193.83,227.3,193.83,209.22c0-7.718,8.244-14.809,13.316-20.4,6.815-7.516,12.1-12.336,23.872-12.336,10.03,0,13.36,3.175,20.05,8.857C258.076,191.293,268.2,199.968,268.2,209.22Z" transform="translate(-16.117 -12.252)"/><path class="a" d="M290.714,294.233c0,7.688-7.078,13.916-15.807,13.916S259.1,301.921,259.1,294.233c0-3.279,3.505-6.293,5.662-8.672,2.9-3.2,5.14-5.241,10.145-5.241,4.264,0,5.679,1.348,8.524,3.765C286.407,286.616,290.714,290.3,290.714,294.233Z" transform="translate(-59.388 -81.093)"/><ellipse class="b" cx="6.522" cy="3.886" rx="6.522" ry="3.886" transform="translate(208.997 202.89)"/><path class="a" d="M319.494,236.584l1.2,1.817a2.194,2.194,0,0,0,2.619.836l7.142-2.743a.455.455,0,0,0-.162-.883H320.016a.627.627,0,0,0-.522.974Z" transform="translate(-99.357 -51.452)"/><circle class="e" cx="3.475" cy="3.475" r="3.475" transform="translate(200.035 189.341)"/><path class="a" d="M270.155,236.584l-1.2,1.817a2.194,2.194,0,0,1-2.619.836l-7.142-2.743a.455.455,0,0,1,.162-.883h10.273a.627.627,0,0,1,.522.974Z" transform="translate(-59.254 -51.452)"/><circle class="e" cx="3.475" cy="3.475" r="3.475" transform="translate(224.053 189.341)"/></g></svg>