<svg xmlns="http://www.w3.org/2000/svg" width="83.488" height="198.185" viewBox="0 0 83.488 198.185"><defs><style>.a{fill:#0c4855;}.b{fill:#00976e;}.c{fill:#012d34;}.d{fill:#36b98b;}.e{fill:#fff;}</style></defs><path class="a" d="M259.824,613.094c0,14.2-17.1,19.642-38.2,19.642s-38.2-5.445-38.2-19.642,17.1-31.773,38.2-31.773S259.824,598.9,259.824,613.094Z" transform="translate(-179.939 -434.551)"/><path class="b" d="M226.316,586.976s-7.1,3.435-6.008,9.987c.891,5.335,16.015,10.372,27.735,9.463,13.9-1.081,27.407-4.185,27.407-12.01C275.45,586.407,264.167,582.791,226.316,586.976Z" transform="translate(-206.135 -437.329)"/><path class="a" d="M238.32,583.081s4.07,6.37,22.422,6.37,22.531-6.37,22.531-6.37V572.89H238.32Z" transform="translate(-219.05 -428.544)"/><path class="c" d="M238.32,561.741v4.913a75.121,75.121,0,0,0,22.954,3.36,65.2,65.2,0,0,0,21.994-3.723V560.83Z" transform="translate(-219.05 -419.951)"/><path class="b" d="M252.913,405.993H228.766c-11.545,0-20.338-8.785-18.481-18.464l9.374-48.869h43.85l7.957,49.254C273.009,397.481,264.267,405.993,252.913,405.993Z" transform="translate(-198.897 -261.647)"/><path class="a" d="M187.813,121.364l-12.531-13.77a14.23,14.23,0,0,1-2.259-16.673l10.518-19.479c.618-1.15,2.656-.716,2.564.538l-1.15,15.632c-.27,3.634,2.076,7.049,5.951,8.667l10.981,4.582-6.755,20.508Z" transform="translate(-171.285 -70.769)"/><path class="a" d="M369.366,121.35l12.528-13.77a14.23,14.23,0,0,0,2.259-16.673L373.637,71.423c-.618-1.15-2.659-.716-2.564.538l1.15,15.632c.27,3.634-2.076,7.049-5.951,8.667L355.3,100.842l6.755,20.508Z" transform="translate(-302.402 -70.755)"/><path class="b" d="M256.608,162.46H243.672c-7.253,0-13.491,3.4-14.885,8.124L222,193.575h54.719L271.6,171.021C270.49,166.1,264.114,162.46,256.608,162.46Z" transform="translate(-207.421 -136.098)"/><path class="c" d="M241.66,347.244s4.266,8.722,21.706,8.722c0,0,20.444-.264,22.281-9.1Z" transform="translate(-221.43 -267.497)"/><path class="d" d="M244.557,279.522a29.456,29.456,0,0,0,17.394-5.4c4.691-3.461,7.7-7.9,7.7-12.91,0-4.576-2.51-8.673-6.459-11.418a18.769,18.769,0,0,0-16.36-2.012l-3.789,1.282a17.535,17.535,0,0,1-11.07,0l-3.786-1.279a18.776,18.776,0,0,0-16.693,2.248,13.936,13.936,0,0,0-6.129,11.185,14.885,14.885,0,0,0,4.522,10.205c4.887,5.174,12.533,8.109,20.528,8.109Z" transform="translate(-195.572 -196.17)"/><ellipse class="b" cx="3.076" cy="4.548" rx="3.076" ry="4.548" transform="translate(24.011 63.649) rotate(-37.67)"/><ellipse class="b" cx="4.548" cy="3.076" rx="4.548" ry="3.076" transform="translate(49.438 67.09) rotate(-52.33)"/><path class="a" d="M330.648,194.991l1.021,1.549a1.871,1.871,0,0,0,2.234.713l6.094-2.34a.391.391,0,0,0-.141-.753H331.1a.535.535,0,0,0-.448.831Z" transform="translate(-284.773 -158.685)"/><circle class="e" cx="2.964" cy="2.964" r="2.964" transform="translate(28.731 39.896)"/><path class="a" d="M279.732,194.991l-1.023,1.549a1.866,1.866,0,0,1-2.231.713l-6.083-2.34a.391.391,0,0,1,.141-.753H279.3a.535.535,0,0,1,.437.831Z" transform="translate(-241.731 -158.685)"/><circle class="e" cx="2.964" cy="2.964" r="2.964" transform="translate(49.218 39.896)"/><path class="d" d="M288.124,389.14h-5.663a11.231,11.231,0,0,0-11.231,11.231l2.28,41.565,23,.026,2.837-41.59a11.231,11.231,0,0,0-11.22-11.231Z" transform="translate(-242.499 -297.615)"/></svg>