<svg xmlns="http://www.w3.org/2000/svg" width="18.5" height="17.704" viewBox="0 0 18.5 17.704"><defs><style>.a{fill:#fafafa;}</style></defs><g transform="translate(0 -10.789)"><path class="a" d="M441,145.789h1.07v3.873H441Z" transform="translate(-424.734 -130.021)"/><path class="a" d="M2.213,85.789H0V100.1l2.213-7.746Z" transform="translate(0 -72.234)"/><path class="a" d="M28.527,280.789l-2.213,7.746h15.5l2.029-7.746Z" transform="translate(-25.343 -260.041)"/><g transform="translate(3.32 10.789)"><path class="a" d="M176.365,85.789a1.292,1.292,0,0,0-1.291,1.291v.738a1.29,1.29,0,0,0,2.324.773,1.278,1.278,0,0,0,.258-.773V87.08a1.293,1.293,0,0,0-1.291-1.291Z" transform="translate(-171.936 -83.023)"/><path class="a" d="M150.074,192.419H154.5v-1.063a1.316,1.316,0,0,0-.449-.99l-.208-.182a2.39,2.39,0,0,1-3.111,0l-.208.182a1.316,1.316,0,0,0-.449.99Z" transform="translate(-147.858 -183.567)"/><path class="a" d="M101.8,15.768V10.789H90v8.852h1.109V18.578a2.422,2.422,0,0,1,.827-1.823l.281-.246a2.384,2.384,0,0,1-.186-.926v-.738a2.4,2.4,0,0,1,4.315-1.438h0a2.376,2.376,0,0,1,.48,1.438v.738a2.381,2.381,0,0,1-.186.926l.281.246a2.422,2.422,0,0,1,.827,1.823v1.063h4.091V15.768Zm-1.107.553H98.668V15.215H100.7Zm0-2.213H97.561V13H100.7Z" transform="translate(-90 -10.789)"/></g></g></svg>