<svg xmlns="http://www.w3.org/2000/svg" xmlns:xlink="http://www.w3.org/1999/xlink" width="666.692" height="395.586" viewBox="0 0 666.692 395.586"><defs><style>.a{fill:none;}.b,.u{isolation:isolate;}.c{clip-path:url(#a);}.d{fill:url(#b);}.e{opacity:0.6;fill:url(#c);}.f{fill:#66d1a8;}.g{fill:#c0f2e0;}.h{fill:#8cddc0;}.i{fill:#fbbd9d;}.ab,.j{fill:#7fc6b2;}.j{opacity:0.8;}.k{fill:#3b9386;}.l{fill:#f4a88e;}.m{fill:#dda187;}.n{fill:#263238;}.o{fill:#fff;}.p{fill:#f9b295;}.q{fill:#ffc5ab;}.r{fill:#213a44;}.s{fill:#183138;}.t{fill:#455b64;}.u{opacity:0.57;mix-blend-mode:screen;fill:url(#d);}.v{fill:#124856;}.w{fill:#0b996f;}.x{fill:#0a2c34;}.y{fill:#2f707f;}.z{fill:#2eb98c;}.aa{fill:#f7a784;}.ac{fill:#81c1a9;}.ad{fill:#d9f1fd;}.ae{fill:#231f20;}</style><clipPath id="a"><path class="a" d="M566.64,194.814c-112.277-6.881-211.442,68.013-225.3,170.318-1.73,12.768-1.946,25.483.377,37.034,10.322,51.34,5.9,66.2-7.374,102.679s-8.847,77.011,112.075,85.116H916.844s66.361-1.351,56.037-64.849,42.767-113.488,14.748-175.637-147.468-49.989-204.981-78.361C748.477,254.26,662.245,200.674,566.64,194.814Z" transform="translate(-329.199 -194.376)"/></clipPath><linearGradient id="b" x1="0.336" y1="0.803" x2="0.89" y2="0.073" gradientUnits="objectBoundingBox"><stop offset="0" stop-color="#fff"/><stop offset="0.28" stop-color="#f6faff"/><stop offset="0.72" stop-color="#c9ddf5"/><stop offset="1" stop-color="#a2c5f0"/></linearGradient><linearGradient id="c" x1="0.632" y1="0.982" x2="0.216" y2="-0.091" gradientUnits="objectBoundingBox"><stop offset="0" stop-color="#fff"/><stop offset="0.13" stop-color="#e2eaf5"/><stop offset="0.33" stop-color="#dce8f8"/><stop offset="0.59" stop-color="#a9c9f4"/><stop offset="0.88" stop-color="#3c8ffd"/><stop offset="1" stop-color="#1d7cfa"/></linearGradient><linearGradient id="d" x1="0.343" y1="-0.078" x2="0.425" y2="0.204" gradientUnits="objectBoundingBox"><stop offset="0" stop-color="#fff" stop-opacity="0.8"/><stop offset="1"/></linearGradient></defs><g class="b" transform="translate(411.552 269.144)"><g transform="translate(-411.551 -269.144)"><g class="c" transform="translate(0 0)"><path class="d" d="M995.147,513.972c-78.846-6-148.492,59.31-158.223,148.524-1.215,11.134-1.365,22.222.265,32.3,7.25,44.771,4.142,57.724-5.178,89.541s-6.215,67.154,78.708,74.222h330.37s46.6-1.178,39.354-56.552,30.034-98.965,10.357-153.161-103.564-43.593-143.955-68.335C1122.847,565.805,1062.289,519.079,995.147,513.972Z" transform="translate(-749.232 -462.968)"/><path class="e" d="M906.1,463.9c-78.137-6-147.157,59.31-156.8,148.524-1.2,11.136-1.354,22.222.262,32.3,7.185,44.771,4.106,57.724-5.132,89.542s-6.87,75.092,77.289,82.16h327.4s46.9-9.114,39.714-64.488,29.771-98.967,10.265-153.163-102.635-43.593-142.661-68.335C1032.651,515.74,972.638,469.014,906.1,463.9Z" transform="translate(-675.485 -420.839)"/><ellipse class="f" cx="45.949" cy="13.367" rx="45.949" ry="13.367" transform="translate(449.226 318.544) rotate(-89.78)"/><path class="g" d="M2957.614,1630.545l-52.844-15.725-.555-83.511-.054-8.278,48.333,14.542s-.823,2.7-1.744,7.612C2948.127,1559.224,2944.743,1591.392,2957.614,1630.545Z" transform="translate(-2495.815 -1312.328)"/><path class="h" d="M2942.5,1571.22a59.741,59.741,0,0,0-1.851-17.929,8.291,8.291,0,0,1,10.346-10.138h0a75.94,75.94,0,0,1,1.744-7.612l-47.7-14.541-.58,8.278,14.835,4.424-7.419,35.413-2.913,24.706,14.907,24.58,21.092,6.277C2935.325,1605.165,2941.441,1596.275,2942.5,1571.22Z" transform="translate(-2496.059 -1310.62)"/><path class="f" d="M1559.447,1428.4c0,23.4-4.077,42.976-9.542,48.03a4.132,4.132,0,0,1-2.781,1.269c-6.8,0-12.323-22.068-12.323-49.291,0-22.95,3.923-42.237,9.233-47.734a5.812,5.812,0,0,1,1.516-1.169h0l3.062-.033C1554.718,1382.409,1559.447,1403.191,1559.447,1428.4Z" transform="translate(-1343.612 -1191.534)"/><path class="i" d="M1066.319,1182.886s-22.349,14.41-70.387-63.7l-35.507-17.127L944.76,1079.29l3.341-12.95,73.938,3.341s8.354,38.853,12.114,44.28,26.325,14.2,28.824,13.367C1062.977,1127.328,1082.191,1151.556,1066.319,1182.886Z" transform="translate(-847.142 -928.061)"/><path class="h" d="M1787.362,1586.041c-34.88,1.045-74.147-2.3-74.147-2.3-.931-1.416-15.246-31.066-20.3-42.756-13.568-31.366-29.2-71.075-29.2-71.075l-.764-.063h-.021c-16.15-1.235-42.838,1.689-50.387,2.361,8.354-2.924,12.323-25.691,12.323-49.083,0-25.205-4.729-45.989-10.833-48.928l81.637-.991,34.454,95.032Z" transform="translate(-1409.032 -1186.267)"/><path class="g" d="M2244.823,1557.033l-27.988,41.355h-18.381c-13.548-9.616-25.5-27.8-35.752-49.426-28.962-61.034-44.451-149.412-44.451-149.412l125.317,19.216.969,106.959Z" transform="translate(-1834.537 -1208.43)"/><path class="j" d="M2388.633,2040.323l-49.516,3.132-17.544-.836c-13.546-9.615-58.69-94.2-63.7-126.779.634.439,70.178,157.482,104.146,44.3Z" transform="translate(-1952.016 -1642.845)"/><path class="k" d="M2075.611,1360.875l9.843-.241a4,4,0,0,1,4.087,3.795c.684,13.586,2.008,60.536,14.867,93.023,23.811,60.152,63.078,99.836,63.078,99.836l-3.134,18.17s-69.968-58.69-89.812-155.394c0,0-5.587-28.326-2.7-55.734A3.879,3.879,0,0,1,2075.611,1360.875Z" transform="translate(-1794.792 -1175.684)"/><path class="l" d="M2277.056,1421.888s-5.433,20.468,16.293,22.977,43.452-38.853,42.608-43.861S2283.321,1399.748,2277.056,1421.888Z" transform="translate(-1967.651 -1208.001)"/><path class="m" d="M2316.652,1581.507c-1.175-2.615-2.152-4.282-2.152-4.282l.243-.025Z" transform="translate(-1999.665 -1357.907)"/><path class="n" d="M2617,1214.913s-2.088,15.037-4.6,18.8c-4.776,7.166-14.992,13.3-18.565,13.123l3.11-27.743,7.1-9.19Z" transform="translate(-2234.706 -1048.855)"/><path class="o" d="M2225.959,1506.3s-8.893,15.632-8.475,29,2.506,15.874,2.506,15.874l16.629-17.812S2225.959,1527.622,2225.959,1506.3Z" transform="translate(-1918.022 -1298.251)"/><path class="p" d="M2267.706,1019.72c-.368,7-9.674,24.883-11.864,29.006a8.3,8.3,0,0,1-1.11,1.618c-1.868,2.13-6.344,10.318-12.712,15.541-4.6,3.76-16.291,15.874-39.265,6.266a12.268,12.268,0,0,1-4.662-3.638c-5.008-6.071-7.544-17.707-6.488-29.763a216.053,216.053,0,0,1,3.647-23.86c2.889-14.169,6.248-25.448,6.248-25.448,6.894-20.261,32.792-11.906,44.07-12.741a7.553,7.553,0,0,1,5.351,2.147h0C2260.149,986.619,2268.064,1013.048,2267.706,1019.72Z" transform="translate(-1896.06 -851.783)"/><path class="q" d="M2265.617,1017.631c-.368,7-9.674,24.883-11.864,29.006a8.309,8.309,0,0,1-1.11,1.618c-1.868,2.13-6.343,10.317-12.712,15.541-4.6,3.76-16.291,15.874-39.267,6.266a10.674,10.674,0,0,1-2.572-1.549c-5.008-6.071-7.544-17.707-6.488-29.763a216.049,216.049,0,0,1,3.647-23.86c2.889-14.169,6.248-25.448,6.248-25.448,6.894-20.261,32.792-11.906,44.07-12.741a7.553,7.553,0,0,1,5.351,2.147h0C2259.221,988.453,2265.942,1011.47,2265.617,1017.631Z" transform="translate(-1896.06 -851.782)"/><path class="r" d="M2283.3,807.12c-4.074,5.167-11.142,9.858-17.863,10.394-10.443.834-10.861-9.19-10.861-9.19-10.86,3.758-12.114-8.356-13.367-15.457-.823-4.661-9.386-5.9-15.172-6.207a26.517,26.517,0,0,0-8.321.864c-26.959,7.352-29.6-16.738-29.55-26.9.013-2.615.2-4.307.2-4.307-8.356-22.976,10.026-21.726,10.026-21.726,18.17-16.082,47.416,14.412,47.416,14.412,27.57-24.228,29.655,32.582,29.655,32.582,6.684-1.253,10.861,10.026,11.279,17.127C2286.889,801.246,2285.552,804.254,2283.3,807.12Z" transform="translate(-1891.7 -644.98)"/><path class="s" d="M2293.781,955.864c-4.074,5.167-11.142,9.858-17.863,10.394-10.443.834-10.861-9.19-10.861-9.19-10.86,3.758-12.114-8.356-13.367-15.457-.823-4.661-9.386-5.9-15.172-6.207a26.519,26.519,0,0,0-8.321.864c-26.959,7.352-29.6-16.738-29.551-26.9a18.224,18.224,0,0,0,15.238,6.553c21.3-.834,33.837-20.885,47.621.836C2274.719,937.576,2267.21,959.928,2293.781,955.864Z" transform="translate(-1902.184 -793.725)"/><path class="t" d="M2502.979,1035.91a25.521,25.521,0,0,0,1.077,4.737,22.125,22.125,0,0,0,1.949,4.364,21.385,21.385,0,0,0,2.8,3.866,23.812,23.812,0,0,0,1.687,1.73,11.066,11.066,0,0,0,.912.807c.317.265.618.538.926.817-.366-.186-.731-.377-1.094-.579a9.3,9.3,0,0,1-1.066-.634,15.592,15.592,0,0,1-1.951-1.559,11.164,11.164,0,0,1-.9-.879l-.82-.951a3.8,3.8,0,0,1-.379-.5l-.357-.519-.355-.52c-.116-.176-.213-.363-.317-.546-.2-.373-.416-.731-.587-1.11s-.347-.764-.509-1.151l-.406-1.189c-.132-.4-.219-.809-.317-1.213A13.848,13.848,0,0,1,2502.979,1035.91Z" transform="translate(-2158.168 -902.457)"/><path class="t" d="M2245.093,743.66a31.318,31.318,0,0,0-2.8,2.507,23.083,23.083,0,0,0-2.379,2.831,14.841,14.841,0,0,0-2.693,6.829,9.818,9.818,0,0,1,.363-3.806,12.135,12.135,0,0,1,1.7-3.465A15.139,15.139,0,0,1,2245.093,743.66Z" transform="translate(-1934.609 -656.553)"/><ellipse class="n" cx="3.968" cy="2.298" rx="3.968" ry="2.298" transform="translate(332.416 170.617) rotate(-65.97)"/><ellipse class="n" cx="3.692" cy="2.138" rx="3.692" ry="2.138" transform="translate(303.435 164.165) rotate(-65.97)"/><path class="n" d="M2478.381,1170.484a15.637,15.637,0,0,0-1.744-1.619,9.752,9.752,0,0,0-1.957-1.232,7.1,7.1,0,0,0-2.195-.634,8.738,8.738,0,0,0-2.355.073,5.245,5.245,0,0,1,2.379-.571,5.727,5.727,0,0,1,2.434.558,7.1,7.1,0,0,1,2.02,1.437A6.951,6.951,0,0,1,2478.381,1170.484Z" transform="translate(-2130.614 -1012.338)"/><path class="n" d="M2268.04,1129.459a15.522,15.522,0,0,0-2.325-.514,9.837,9.837,0,0,0-2.312-.071,7.018,7.018,0,0,0-2.22.565,8.771,8.771,0,0,0-1.993,1.253,5.234,5.234,0,0,1,1.767-1.7,5.69,5.69,0,0,1,2.379-.752,7.139,7.139,0,0,1,2.471.214A6.944,6.944,0,0,1,2268.04,1129.459Z" transform="translate(-1953.126 -980.124)"/><path class="n" d="M2291.732,1192.78q-2.431,3.262-4.667,6.648c-.736,1.134-1.464,2.271-2.144,3.436s-1.345,2.339-1.943,3.544a31.819,31.819,0,0,0-1.6,3.692,18.8,18.8,0,0,0-.576,1.917,12.146,12.146,0,0,0-.317,1.962,8.159,8.159,0,0,0-.013.986c.014.159.022.331.046.476a2.536,2.536,0,0,0,.114.457,2.35,2.35,0,0,0,.476.8,1.988,1.988,0,0,0,.354.309,1.662,1.662,0,0,0,.416.2,7.046,7.046,0,0,0,1.971.252c.669.021,1.353-.013,2.03-.049-.671.1-1.345.179-2.027.214a9.99,9.99,0,0,1-1.026,0,4.638,4.638,0,0,1-1.034-.146,1.85,1.85,0,0,1-.507-.213,2.429,2.429,0,0,1-.428-.338,2.727,2.727,0,0,1-.6-.9,2.819,2.819,0,0,1-.159-.522c-.038-.182-.049-.352-.071-.526a8.485,8.485,0,0,1-.027-1.045,11.339,11.339,0,0,1,.265-2.062,19,19,0,0,1,.549-1.989,30.4,30.4,0,0,1,1.6-3.782c.614-1.219,1.284-2.407,1.993-3.571s1.46-2.3,2.249-3.4A66.652,66.652,0,0,1,2291.732,1192.78Z" transform="translate(-1970.633 -1034.45)"/><path class="q" d="M2581.86,1308.21s17.963,0,20.887-12.528-8.773-11.278-10.443-9.607Z" transform="translate(-2224.626 -1112.077)"/><path class="u" d="M256.73,378.322l27.877,96.395L454.935,607.287H587.369l95.1-125.3L417.392,300.08Z" transform="translate(-150.752 -209.811)"/><path class="v" d="M1142.97,676.329l-33.986,93.356-89.966-17.068L946.07,738.775l41.355-87.3,10.66,1.553,143.586,21.13a1.635,1.635,0,0,1,1.3,2.177Z" transform="translate(-848.245 -578.982)"/><path class="w" d="M1071.843,762.01,946.08,738.775l41.355-87.3,52.2,7.666C1038.474,671.409,1044.891,740.852,1071.843,762.01Z" transform="translate(-848.253 -578.983)"/><path class="x" d="M368.651,774.394v-5.43l-93.683-18.1L205.32,738.47l1.671,5.431" transform="translate(-107.495 -578.679)"/><path class="x" d="M1835.922,797.139l-4.791,10.267a1.205,1.205,0,0,1-1.269.677l-42.854-6.684A1.2,1.2,0,0,1,1786,800.1a1.11,1.11,0,0,1,.171-.522l6.148-9.905a1.2,1.2,0,0,1,1.2-.552l41.5,6.321a.758.758,0,0,1,.174.041,1.2,1.2,0,0,1,.729,1.651Z" transform="translate(-1554.973 -694.796)"/><path class="y" d="M1835.211,795.488a1.122,1.122,0,0,1-.1.4l-4.791,10.268a1.205,1.205,0,0,1-1.269.677l-42.855-6.684a.772.772,0,0,1-.171-.041,1.11,1.11,0,0,1,.171-.522l6.148-9.905a1.2,1.2,0,0,1,1.2-.552l41.5,6.321a.759.759,0,0,1,.174.041Z" transform="translate(-1554.993 -694.796)"/><ellipse class="x" cx="5.222" cy="4.596" rx="5.222" ry="4.596" transform="translate(236.511 96.295)"/><path class="y" d="M1834.643,810.133a4.148,4.148,0,0,1-4.386,3.858,4.683,4.683,0,0,1-3.078-1.11l-.017-.016a3.618,3.618,0,0,1-1.291-2.728,4.148,4.148,0,0,1,4.386-3.86,4.6,4.6,0,0,1,3.489,1.532.059.059,0,0,1,.016.017A3.556,3.556,0,0,1,1834.643,810.133Z" transform="translate(-1588.523 -709.24)"/><path class="w" d="M1836.864,812.347a4.148,4.148,0,0,1-4.386,3.858,4.683,4.683,0,0,1-3.078-1.11l-.017-.016a3.559,3.559,0,0,1-.872-2.311,4.149,4.149,0,0,1,4.385-3.86,4.7,4.7,0,0,1,3.08,1.11.059.059,0,0,1,.016.017A3.557,3.557,0,0,1,1836.864,812.347Z" transform="translate(-1590.745 -711.454)"/><ellipse class="z" cx="1.253" cy="1.045" rx="1.253" ry="1.045" transform="translate(240.271 97.967)"/><ellipse class="z" cx="1.002" cy="0.836" rx="1.002" ry="0.836" transform="translate(238.6 99.22)"/><ellipse class="x" cx="3.494" cy="3.075" rx="3.494" ry="3.075" transform="translate(248.3 100.105)"/><path class="y" d="M1904.331,831.291a2.775,2.775,0,0,1-2.935,2.582,3.137,3.137,0,0,1-2.062-.747l-.011-.011a2.417,2.417,0,0,1-.863-1.824,2.775,2.775,0,0,1,2.934-2.583,3.071,3.071,0,0,1,2.339,1.026.012.012,0,0,1,.011.011,2.379,2.379,0,0,1,.587,1.546Z" transform="translate(-1649.602 -728.113)"/><path class="w" d="M1905.812,832.773a2.775,2.775,0,0,1-2.935,2.582,3.137,3.137,0,0,1-2.062-.747l-.011-.011a2.379,2.379,0,0,1-.584-1.545,2.775,2.775,0,0,1,2.935-2.583,3.132,3.132,0,0,1,2.062.747.012.012,0,0,1,.011.011,2.378,2.378,0,0,1,.584,1.546Z" transform="translate(-1651.083 -729.595)"/><ellipse class="z" cx="0.839" cy="0.699" rx="0.839" ry="0.699" transform="translate(250.815 101.223)"/><ellipse class="z" cx="0.671" cy="0.558" rx="0.671" ry="0.558" transform="translate(249.697 102.063)"/><path class="y" d="M1232.63,432.5l34.084-94.406.587,5.43-34.254,93.987" transform="translate(-971.891 -241.793)"/><path class="z" d="M979.08,977.163s7.1-1.254,9.609,2.923,3.341,16.291-42.608,32.584l2.924-6.545Z" transform="translate(-848.253 -852.877)"/><path class="z" d="M1146.881,690.16s7.518-1.671,9.607,5.847S1139.78,712.3,1139.78,712.3h-6.68Z" transform="translate(-1005.615 -611.404)"/><path class="i" d="M959.315,629.331,929.66,646.458a8.593,8.593,0,0,1-2.748-4.578c-1.145-4.431-.043-12.263,11.938-24.244,20.468-20.468,28.822-27.988,35.507-25.9,2.252.7,3.793,2.883,4,6.242C978.756,604.579,973.991,615.758,959.315,629.331Z" transform="translate(-831.83 -528.438)"/><path class="z" d="M1103.3,774.08s13.351,12-1.218,23.163c-19.633,15.038-13.784,12.114-13.784,12.114L1064.46,805Z" transform="translate(-947.86 -682.149)"/><path class="aa" d="M961.173,664.259l-29.655,17.127a8.593,8.593,0,0,1-2.748-4.578c1.181-1.92,3.75-4.055,9.014-5.868,13.367-4.6,38.49-20.916,42.429-38.03h0C980.614,639.507,975.849,650.686,961.173,664.259Z" transform="translate(-833.688 -563.366)"/><path class="i" d="M926.875,786.281l-34.73,15.836s-5.251-4.916-1.792-13.021a20.513,20.513,0,0,1,1.792-3.27c5.623-8.438,44.086-27.224,56.13-32.971a5.474,5.474,0,0,1,6.884,1.854c.225.335.447.69.66,1.061C959.365,762.081,959.8,774.008,926.875,786.281Z" transform="translate(-800.371 -663.838)"/><path class="aa" d="M926.875,804.591l-34.73,15.836s-5.251-4.916-1.792-13.021c3.2,1.868,15.557-.343,32.947-7.439,23.007-9.394,32.51-25.887,32.51-25.887h.008C959.365,780.392,959.8,792.319,926.875,804.591Z" transform="translate(-800.371 -682.149)"/><path class="i" d="M924.689,981.582a12.423,12.423,0,0,1-3.942,2.537L892.888,997.3s-12.741-2.3-13.162-8.146a6.048,6.048,0,0,1-.317-2.648c.376-4.857,5.709-15.343,42.039-22.21a7.748,7.748,0,0,1,7.658,3.647c.041.062.083.128.125.2h0C930.977,970.993,931.156,975.408,924.689,981.582Z" transform="translate(-792.137 -842.109)"/><path class="aa" d="M924.706,1002.552a12.423,12.423,0,0,1-3.942,2.537l-28.277,13.183s-12.322-2.3-12.741-8.146a6.048,6.048,0,0,1-.317-2.648c3.257,6.2,23.367-1.089,35.611-3.408,14.728-2.786,14.282-13.919,14.211-14.959C930.993,991.963,931.173,996.378,924.706,1002.552Z" transform="translate(-792.154 -863.079)"/><path class="ab" d="M1964.349,2017.517c-13.568-31.366-29.2-71.075-29.2-71.075-.25-.021,6.343,2.038,16.082-6.892,0,0,1.253,7.1-9.19,12.114C1942.045,1951.664,1951.644,1985.6,1964.349,2017.517Z" transform="translate(-1680.47 -1662.795)"/><circle class="ac" cx="4.177" cy="4.177" r="4.177" transform="translate(312.954 247.514)"/><circle class="ac" cx="4.177" cy="4.177" r="4.177" transform="translate(316.714 268.399)"/><path class="n" d="M2264.45,1437.1a2.6,2.6,0,0,0,.317.634,4.581,4.581,0,0,0,.427.558,5.807,5.807,0,0,0,1.058.912,8.1,8.1,0,0,0,1.213.692c.208.1.428.187.634.281s.439.159.656.241a18.01,18.01,0,0,0,2.728.664c.462.086.929.141,1.4.206l.7.07.351.035.354.022.706.051c.235.013.476.019.707.029s.476.022.707.024h.709c.952.016,1.892-.011,2.84-.04,1.9-.067,3.79-.2,5.695-.331a47.617,47.617,0,0,1-5.666.826c-.476.038-.951.084-1.427.1s-.951.047-1.427.047-.959,0-1.438-.011c-.241,0-.476-.011-.72-.022l-.72-.046-.358-.025-.36-.04-.717-.078c-.476-.075-.951-.129-1.427-.232a16.008,16.008,0,0,1-2.788-.793,9.511,9.511,0,0,1-2.529-1.427,5.69,5.69,0,0,1-1.007-1.05A3.313,3.313,0,0,1,2264.45,1437.1Z" transform="translate(-1957.552 -1240.025)"/><path class="y" d="M1591.487,1329.594a2.1,2.1,0,0,1-2.452,1.657l-34.914-6.727a2.09,2.09,0,0,1,.384-4.144,2.233,2.233,0,0,1,.409.038l34.914,6.721a2.1,2.1,0,0,1,1.659,2.455Z" transform="translate(-1358.438 -1141.815)"/><path class="v" d="M1588.057,1334.551a2.055,2.055,0,0,1-.23.623,2.1,2.1,0,0,1-1.441.246l-34.914-6.727a1.714,1.714,0,1,1-.4-3.356,2.232,2.232,0,0,1,.409.038l34.914,6.726A2.1,2.1,0,0,1,1588.057,1334.551Z" transform="translate(-1355.788 -1145.984)"/><path class="y" d="M1307.027,1274.284a2.1,2.1,0,0,1-2.044,1.694,2.232,2.232,0,0,1-.409-.038l-34.914-6.727a2.1,2.1,0,0,1-1.659-2.448,2.055,2.055,0,0,1,.23-.623,2.1,2.1,0,0,1,2.22-1.034l34.914,6.727A2.1,2.1,0,0,1,1307.027,1274.284Z" transform="translate(-1119.092 -1095.276)"/><path class="v" d="M1306.222,1279.254a.951.951,0,0,1-1.269.906,2.222,2.222,0,0,1-.409-.038l-34.914-6.727a2.1,2.1,0,0,1-1.659-2.448,2.054,2.054,0,0,1,.23-.623,2.1,2.1,0,0,1,1.442-.246l34.914,6.727A2.1,2.1,0,0,1,1306.222,1279.254Z" transform="translate(-1119.067 -1099.458)"/><path class="aa" d="M883.923,1054.48l-.793,1.744C883.35,1055.672,883.618,1055.1,883.923,1054.48Z" transform="translate(-795.286 -918.082)"/><path class="q" d="M2440.414,1617.716s97.224-31.9,98.563,10.693c.951,30.159-99.546,19.6-99.546,19.6s-2.82,9.764-29.255,14.258c-5.485.934-21.5-8.462-23.11-25.075s10.149-26.2,16.279-29.01C2415.261,1602.728,2440.414,1617.716,2440.414,1617.716Z" transform="translate(-2060.596 -1382.348)"/><path class="aa" d="M2572.2,1727.661s3.378-19.769,15-26.9C2587.2,1700.76,2575.933,1716.815,2572.2,1727.661Z" transform="translate(-2216.498 -1461.873)"/><path class="h" d="M1904.074,1018.125l1.973,9.145-51.666-7.254,5.387-9.256Z" transform="translate(-1495.042 -807.789)"/><path class="ad" d="M2362.047,1655.26H2313.5a2.847,2.847,0,0,0-2.775,2.9v30.159a2.851,2.851,0,0,0,2.775,2.9h48.552a2.847,2.847,0,0,0,2.775-2.9v-30.159A2.847,2.847,0,0,0,2362.047,1655.26Zm-18.11,3.229a.793.793,0,0,1-.771.8h-10.784a.793.793,0,0,1-.771-.8v-.081a.793.793,0,0,1,.771-.8h10.784a.793.793,0,0,1,.771.8Z" transform="translate(-1996.484 -1423.589)"/><rect class="o" width="21.658" height="22.601" rx="10.829" transform="translate(317.001 238.346)"/><path class="ae" d="M2502.322,1709.124h-22.73a.322.322,0,1,1,0-.644h22.73a.322.322,0,0,1,0,.644Z" transform="translate(-2138.305 -1468.369)"/><path class="ae" d="M2502.322,1748.344h-22.73a.322.322,0,1,1,0-.644h22.73a.322.322,0,0,1,0,.644Z" transform="translate(-2138.305 -1501.369)"/><path class="ae" d="M2502.322,1773.364h-22.73a.322.322,0,1,1,0-.644h22.73a.322.322,0,0,1,0,.644Z" transform="translate(-2138.305 -1522.421)"/><path class="ae" d="M2502.322,1798.384h-22.73a.322.322,0,1,1,0-.644h22.73a.322.322,0,0,1,0,.644Z" transform="translate(-2138.305 -1543.474)"/><path class="ae" d="M2502.347,1823.454h-22.73a.317.317,0,0,1,0-.634h22.73a.317.317,0,0,1,0,.634Z" transform="translate(-2138.33 -1564.576)"/><path class="ae" d="M2382.407,1858.262h-45.331a.321.321,0,1,1,0-.642h45.331a.321.321,0,1,1,0,.642Z" transform="translate(-2018.391 -1593.858)"/></g><path class="q" d="M2570.008,1592.5c-.5,2.306-1.681,4.255-3.617,4.464-4.758.52-5.018-1.524-5.308-6.935a8.988,8.988,0,0,1,1.162-5.3l.049-.027a7.872,7.872,0,0,1,5.752-.3C2570.012,1585.024,2570.729,1589.142,2570.008,1592.5Z" transform="translate(-2207.13 -1363.628)"/><path class="aa" d="M2570.008,1596.2c-.5,2.306-1.681,4.255-3.617,4.464-4.758.52-5.018-1.524-5.308-6.935a8.988,8.988,0,0,1,1.162-5.3l.049-.027C2562.324,1589.526,2562.762,1600.41,2570.008,1596.2Z" transform="translate(-2207.13 -1367.331)"/><path class="q" d="M2518.725,1599.28a3.172,3.172,0,0,1-2.2,1.86c-5.753,1.427-7.748-.5-9.816-7.36a25.29,25.29,0,0,1-.654-2.655.314.314,0,0,0-.008-.033,13.334,13.334,0,0,1-.274-3.827s2.5-2.074,7.16-1.373C2516.72,1586.462,2520.534,1595.254,2518.725,1599.28Z" transform="translate(-2160.574 -1365.1)"/><path class="aa" d="M2520.419,1627.814a3.172,3.172,0,0,1-2.2,1.86c-5.753,1.427-7.748-.5-9.816-7.36a25.307,25.307,0,0,1-.654-2.655c.2.717,3.678,12.676,12.666,8.154Z" transform="translate(-2162.269 -1393.634)"/><path class="q" d="M2456.9,1605.208a3.171,3.171,0,0,1-2.2,1.862c-5.753,1.427-7.75-.5-9.816-7.36a25.3,25.3,0,0,1-.653-2.655v-.035a13.265,13.265,0,0,1-.274-3.827s2.5-2.073,7.16-1.372C2454.9,1592.388,2458.714,1601.18,2456.9,1605.208Z" transform="translate(-2108.563 -1370.089)"/><path class="aa" d="M2453.451,1628.578a2.875,2.875,0,0,1-2.1,2.02c-5.692,1.308-7.8-1.023-10.275-9.058-.357-1.159-.617-2.195-.809-3.1.246.839,4.421,14.837,13.178,10.138Z" transform="translate(-2105.49 -1392.607)"/><path class="q" d="M2399.625,1603.55a3.172,3.172,0,0,1-2.2,1.86c-5.755,1.427-7.75-.5-9.818-7.36a25.7,25.7,0,0,1-.653-2.655.063.063,0,0,0-.008-.035,13.327,13.327,0,0,1-.274-3.825s2.5-2.074,7.16-1.373C2397.624,1590.732,2401.442,1599.53,2399.625,1603.55Z" transform="translate(-2060.362 -1368.693)"/><path class="aa" d="M2401.319,1632.084a3.172,3.172,0,0,1-2.2,1.86c-5.755,1.427-7.75-.5-9.818-7.36a25.683,25.683,0,0,1-.653-2.655c.2.717,3.677,12.676,12.666,8.154Z" transform="translate(-2062.056 -1397.227)"/><path class="q" d="M2391.817,1881.691c.931-3.632,16.724-3.5,18.261,1.484a.1.1,0,0,0,0,.021c1.522,4.975-1.408,6.879-1.408,6.879-8.9-.818-14.564-3.148-16.345-5.822h0A3.081,3.081,0,0,1,2391.817,1881.691Z" transform="translate(-2064.641 -1611.993)"/><path class="aa" d="M2391.817,1881.691c.931-3.632,16.724-3.5,18.261,1.484a.1.1,0,0,0,0,.021c-4.064-1.151-19.7-5.209-17.753,1.056A3.076,3.076,0,0,1,2391.817,1881.691Z" transform="translate(-2064.641 -1611.993)"/></g></g></svg>