<svg xmlns="http://www.w3.org/2000/svg" width="36.339" height="40.596" viewBox="0 0 36.339 40.596"><defs><style>.a{fill:#fafafa;}</style></defs><g transform="translate(-24.165)"><g transform="translate(31.796)"><g transform="translate(0)"><path class="a" d="M121.331,0a10.54,10.54,0,1,0,10.54,10.54A10.568,10.568,0,0,0,121.331,0Z" transform="translate(-110.791)"/></g></g><g transform="translate(24.165 21.835)"><g transform="translate(0)"><path class="a" d="M60.426,255.51a9.827,9.827,0,0,0-1.059-1.933,13.1,13.1,0,0,0-9.067-5.707,1.94,1.94,0,0,0-1.335.322,11.235,11.235,0,0,1-13.256,0,1.727,1.727,0,0,0-1.335-.322,13.006,13.006,0,0,0-9.067,5.707,11.331,11.331,0,0,0-1.059,1.933.979.979,0,0,0,.046.875,18.358,18.358,0,0,0,1.243,1.841,17.492,17.492,0,0,0,2.117,2.393,27.589,27.589,0,0,0,2.117,1.841,20.99,20.99,0,0,0,25.039,0,20.237,20.237,0,0,0,2.117-1.841,21.253,21.253,0,0,0,2.117-2.393,16.134,16.134,0,0,0,1.243-1.841A.785.785,0,0,0,60.426,255.51Z" transform="translate(-24.165 -247.841)"/></g></g></g></svg>